<svg width="24" height="25" viewBox="0 0 24 25" fill="none" xmlns="http://www.w3.org/2000/svg">
<path fill-rule="evenodd" clip-rule="evenodd" d="M20.8339 3.46383C17.1516 0.0932769 11.3944 0.342863 7.96545 3.96376C6.44218 5.56971 5.57907 7.6901 5.54772 9.90334C5.51638 12.1166 6.3191 14.2606 7.79627 15.909L1.1902 22.0424C1.13019 22.0983 1.08234 22.1659 1.04961 22.2411C1.01689 22.3163 1 22.3974 1 22.4794C1 22.5614 1.01689 22.6425 1.04961 22.7177C1.08234 22.7929 1.13019 22.8605 1.1902 22.9164C1.31765 23.0415 1.48758 23.0825 1.65676 23.0825C1.82593 23.0825 1.9951 23.0415 2.12179 22.9164L8.68538 16.7829C10.3482 18.2065 12.4652 18.9886 14.6542 18.9882H14.9925C17.405 18.9055 19.649 17.8647 21.3422 16.1169C22.1512 15.2632 22.7815 14.2564 23.1959 13.1557C23.6103 12.055 23.8005 10.8825 23.7554 9.70728C23.6704 7.33507 22.6121 5.08728 20.8339 3.46383ZM20.4106 15.2429C18.9824 16.7451 17.0216 17.6269 14.9501 17.6986C12.8785 17.7837 10.8565 17.051 9.32034 15.6587C6.14551 12.7873 5.97634 7.87597 8.89703 4.79597C10.4211 3.17252 12.5377 2.34031 14.6542 2.34031C16.5591 2.34031 18.464 3.00562 19.9873 4.37948C21.5114 5.79507 22.4005 7.6681 22.4854 9.749C22.532 10.7578 22.372 11.7654 22.0153 12.7102C21.6585 13.6549 21.1124 14.5168 20.4106 15.2429Z" fill="white"/>
</svg>
