<svg width="233" height="94" viewBox="0 0 233 94" fill="none" xmlns="http://www.w3.org/2000/svg">
<path fill-rule="evenodd" clip-rule="evenodd" d="M115.289 21.2437H88.4867V30.1124H102.134V63.6578L115.289 21.2437Z" fill="url(#paint0_linear_1902_4534)"/>
<path d="M74.8371 71.4999H64.1808V30.1124H50.5339V21.2437H88.4839V30.1124H74.8371V71.4999Z" fill="url(#paint1_linear_1902_4534)"/>
<path d="M47.85 46.3031C47.85 50.176 47.3688 53.7052 46.4062 56.8906C45.4437 60.0531 43.9771 62.7802 42.0062 65.0719C40.0583 67.3635 37.5833 69.1281 34.5812 70.3656C31.5792 71.5802 28.0271 72.1875 23.925 72.1875C19.8229 72.1875 16.2708 71.5802 13.2687 70.3656C10.2667 69.1281 7.78021 67.3635 5.80938 65.0719C3.86146 62.7802 2.40625 60.0417 1.44375 56.8563C0.48125 53.6708 0 50.1302 0 46.2344C0 41.0323 0.847916 36.5063 2.54375 32.6562C4.2625 28.7833 6.89792 25.7812 10.45 23.65C14.0021 21.5187 18.5167 20.4531 23.9937 20.4531C29.4479 20.4531 33.9281 21.5187 37.4344 23.65C40.9635 25.7812 43.576 28.7833 45.2719 32.6562C46.9906 36.5292 47.85 41.0781 47.85 46.3031ZM11.1719 46.3031C11.1719 49.8094 11.6073 52.8344 12.4781 55.3781C13.3719 57.899 14.7583 59.8469 16.6375 61.2219C18.5167 62.574 20.9458 63.25 23.925 63.25C26.95 63.25 29.4021 62.574 31.2812 61.2219C33.1604 59.8469 34.524 57.899 35.3719 55.3781C36.2427 52.8344 36.6781 49.8094 36.6781 46.3031C36.6781 41.0323 35.6927 36.8844 33.7219 33.8594C31.751 30.8344 28.5083 29.3219 23.9937 29.3219C20.9917 29.3219 18.5396 30.0094 16.6375 31.3844C14.7583 32.7365 13.3719 34.6844 12.4781 37.2281C11.6073 39.749 11.1719 42.774 11.1719 46.3031Z" fill="url(#paint2_linear_1902_4534)"/>
<path fill-rule="evenodd" clip-rule="evenodd" d="M18.1321 71.7231C19.9228 72.0327 21.8538 72.1875 23.925 72.1875C28.0271 72.1875 31.5791 71.5802 34.5812 70.3657C37.5833 69.1282 40.0583 67.3636 42.0062 65.0719C43.9771 62.7802 45.4437 60.0532 46.4062 56.8907C47.3687 53.7052 47.85 50.1761 47.85 46.3032C47.85 41.0782 46.9906 36.5292 45.2718 32.6563C43.576 28.7834 40.9635 25.7813 37.4343 23.65C36.263 22.938 34.983 22.345 33.5943 21.8708L30.7718 30.9709C31.9558 31.6952 32.9391 32.658 33.7218 33.8594C35.6927 36.8844 36.6781 41.0323 36.6781 46.3032C36.6781 49.8094 36.2427 52.8344 35.3718 55.3782C34.5239 57.899 33.1604 59.8469 31.2812 61.2219C29.4021 62.574 26.95 63.25 23.925 63.25C22.8235 63.25 21.7972 63.1576 20.8461 62.9728L18.1321 71.7231Z" fill="#2B80F3"/>
<path d="M144.711 71.5L139.795 57.5437H120.58L115.664 71.5H106.967L125.667 21.0375H134.811L153.477 71.5H144.711ZM137.664 50.4625L132.886 36.7125C132.703 36.1167 132.439 35.2802 132.095 34.2031C131.752 33.1031 131.408 31.9917 131.064 30.8687C130.72 29.7229 130.434 28.7604 130.205 27.9812C129.976 28.9208 129.689 29.975 129.345 31.1437C129.025 32.2896 128.704 33.3667 128.383 34.375C128.085 35.3833 127.856 36.1625 127.695 36.7125L122.883 50.4625H137.664ZM174.587 32.725C179.102 32.725 182.722 34.375 185.45 37.675C188.2 40.975 189.575 45.8792 189.575 52.3875C189.575 56.6958 188.933 60.3281 187.65 63.2844C186.389 66.2177 184.613 68.4406 182.321 69.9531C180.053 71.4427 177.406 72.1875 174.381 72.1875C172.456 72.1875 170.783 71.9354 169.362 71.4312C167.941 70.9271 166.727 70.274 165.718 69.4719C164.71 68.6469 163.862 67.7531 163.175 66.7906H162.693C162.808 67.7073 162.911 68.7271 163.003 69.85C163.117 70.95 163.175 71.9583 163.175 72.875V88.3781H155.062V33.4469H161.662L162.796 38.7062H163.175C163.885 37.6292 164.744 36.6323 165.753 35.7156C166.784 34.799 168.021 34.0771 169.465 33.55C170.932 33 172.639 32.725 174.587 32.725ZM172.421 39.325C170.199 39.325 168.411 39.7719 167.059 40.6656C165.73 41.5365 164.756 42.8542 164.137 44.6187C163.541 46.3833 163.22 48.5948 163.175 51.2531V52.3875C163.175 55.2062 163.461 57.601 164.034 59.5719C164.63 61.5198 165.604 63.0094 166.956 64.0406C168.331 65.049 170.187 65.5531 172.525 65.5531C174.495 65.5531 176.122 65.0146 177.406 63.9375C178.712 62.8604 179.686 61.325 180.328 59.3312C180.969 57.3375 181.29 54.9885 181.29 52.2844C181.29 48.1823 180.557 44.9969 179.09 42.7281C177.646 40.4594 175.424 39.325 172.421 39.325ZM214.226 32.725C218.74 32.725 222.361 34.375 225.088 37.675C227.838 40.975 229.213 45.8792 229.213 52.3875C229.213 56.6958 228.571 60.3281 227.288 63.2844C226.028 66.2177 224.252 68.4406 221.96 69.9531C219.691 71.4427 217.044 72.1875 214.019 72.1875C212.094 72.1875 210.421 71.9354 209.001 71.4312C207.58 70.9271 206.365 70.274 205.357 69.4719C204.348 68.6469 203.501 67.7531 202.813 66.7906H202.332C202.446 67.7073 202.55 68.7271 202.641 69.85C202.756 70.95 202.813 71.9583 202.813 72.875V88.3781H194.701V33.4469H201.301L202.435 38.7062H202.813C203.523 37.6292 204.383 36.6323 205.391 35.7156C206.422 34.799 207.66 34.0771 209.104 33.55C210.57 33 212.278 32.725 214.226 32.725ZM212.06 39.325C209.837 39.325 208.05 39.7719 206.697 40.6656C205.368 41.5365 204.394 42.8542 203.776 44.6187C203.18 46.3833 202.859 48.5948 202.813 51.2531V52.3875C202.813 55.2062 203.1 57.601 203.672 59.5719C204.268 61.5198 205.242 63.0094 206.594 64.0406C207.969 65.049 209.826 65.5531 212.163 65.5531C214.134 65.5531 215.761 65.0146 217.044 63.9375C218.351 62.8604 219.325 61.325 219.966 59.3312C220.608 57.3375 220.929 54.9885 220.929 52.2844C220.929 48.1823 220.195 44.9969 218.729 42.7281C217.285 40.4594 215.062 39.325 212.06 39.325Z" fill="white"/>
<defs>
<linearGradient id="paint0_linear_1902_4534" x1="101.888" y1="21.2437" x2="101.888" y2="63.6578" gradientUnits="userSpaceOnUse">
<stop stop-color="#FD6020"/>
<stop offset="1" stop-color="#E32900"/>
</linearGradient>
<linearGradient id="paint1_linear_1902_4534" x1="69.5089" y1="21.2437" x2="69.5089" y2="71.4999" gradientUnits="userSpaceOnUse">
<stop stop-color="#F9A000"/>
<stop offset="1" stop-color="#E46E00"/>
</linearGradient>
<linearGradient id="paint2_linear_1902_4534" x1="31.6643" y1="72.1876" x2="48.4095" y2="16.9946" gradientUnits="userSpaceOnUse">
<stop stop-color="#28356A"/>
<stop offset="1" stop-color="#0C7CFF"/>
</linearGradient>
</defs>
</svg>
